<svg width="155" height="42" viewBox="0 0 155 42" fill="none" xmlns="http://www.w3.org/2000/svg">
<path d="M25 42H15C6.8 42 0 35.3 0 27V17C0 8.8 6.8 2 15 2H25C33.3 2 40 8.8 40 17V27C40 35.3 33.3 42 25 42Z" fill="#FF3514"/>
<path d="M24.5153 8H19.3721C19.0993 8 18.8377 8.10837 18.6448 8.30128C18.4519 8.49418 18.3435 8.75582 18.3435 9.02863V13.582C16.0584 13.9124 13.9688 15.055 12.4576 16.8005C10.9463 18.5461 10.1145 20.7776 10.1145 23.0865H9.08588C8.26745 23.0865 7.48255 23.4116 6.90383 23.9903C6.32512 24.569 6 25.354 6 26.1724V34.4014C6 34.9692 6.46082 35.43 7.02863 35.43H16.972C17.0629 35.43 17.1501 35.3939 17.2144 35.3296C17.2788 35.2653 17.3149 35.1781 17.3149 35.0871V30.9726C17.3149 30.7908 17.3871 30.6163 17.5157 30.4877C17.6443 30.3591 17.8188 30.2869 18.0006 30.2869H21.4294C21.6112 30.2869 21.7857 30.3591 21.9143 30.4877C22.0429 30.6163 22.1151 30.7908 22.1151 30.9726V35.0871C22.1151 35.2764 22.2687 35.43 22.458 35.43H32.4014C32.6742 35.43 32.9358 35.3216 33.1287 35.1287C33.3216 34.9358 33.43 34.6742 33.43 34.4014V26.1724C33.43 25.354 33.1049 24.569 32.5262 23.9903C31.9475 23.4116 31.1626 23.0865 30.3441 23.0865H29.3155C29.3155 20.659 28.3959 18.3217 26.7418 16.545C25.0877 14.7683 22.822 13.6841 20.4008 13.5107V12.1145H24.5153C24.6971 12.1145 24.8715 12.0423 25.0001 11.9136C25.1288 11.785 25.201 11.6106 25.201 11.4288V8.68575C25.201 8.50388 25.1288 8.32945 25.0001 8.20085C24.8715 8.07225 24.6971 8 24.5153 8ZM24.5153 21.3721V24.1151C24.5153 24.3879 24.4069 24.6496 24.214 24.8425C24.0211 25.0354 23.7594 25.1438 23.4866 25.1438C23.2138 25.1438 22.9522 25.0354 22.7593 24.8425C22.5664 24.6496 22.458 24.3879 22.458 24.1151V21.3721C22.458 21.0993 22.5664 20.8377 22.7593 20.6448C22.9522 20.4519 23.2138 20.3435 23.4866 20.3435C23.7594 20.3435 24.0211 20.4519 24.214 20.6448C24.4069 20.8377 24.5153 21.0993 24.5153 21.3721ZM19.3721 20.3435C19.6449 20.3435 19.9066 20.4519 20.0995 20.6448C20.2924 20.8377 20.4008 21.0993 20.4008 21.3721V24.1151C20.4008 24.3879 20.2924 24.6496 20.0995 24.8425C19.9066 25.0354 19.6449 25.1438 19.3721 25.1438C19.0993 25.1438 18.8377 25.0354 18.6448 24.8425C18.4519 24.6496 18.3435 24.3879 18.3435 24.1151V21.3721C18.3435 21.0993 18.4519 20.8377 18.6448 20.6448C18.8377 20.4519 19.0993 20.3435 19.3721 20.3435ZM16.2863 21.3721V24.1151C16.2863 24.3879 16.1779 24.6496 15.985 24.8425C15.7921 25.0354 15.5304 25.1438 15.2576 25.1438C14.9848 25.1438 14.7232 25.0354 14.5303 24.8425C14.3374 24.6496 14.229 24.3879 14.229 24.1151V21.3721C14.229 21.0993 14.3374 20.8377 14.5303 20.6448C14.7232 20.4519 14.9848 20.3435 15.2576 20.3435C15.5304 20.3435 15.7921 20.4519 15.985 20.6448C16.1779 20.8377 16.2863 21.0993 16.2863 21.3721ZM11.1431 26.5153C11.4159 26.5153 11.6776 26.6236 11.8705 26.8165C12.0634 27.0094 12.1718 27.2711 12.1718 27.5439V30.9726C12.1718 31.2454 12.0634 31.5071 11.8705 31.7C11.6776 31.8929 11.4159 32.0013 11.1431 32.0013C10.8703 32.0013 10.6087 31.8929 10.4158 31.7C10.2229 31.5071 10.1145 31.2454 10.1145 30.9726V27.5439C10.1145 27.2711 10.2229 27.0094 10.4158 26.8165C10.6087 26.6236 10.8703 26.5153 11.1431 26.5153ZM29.3155 27.5439V30.9726C29.3155 31.2454 29.2071 31.5071 29.0142 31.7C28.8213 31.8929 28.5597 32.0013 28.2869 32.0013C28.0141 32.0013 27.7524 31.8929 27.5595 31.7C27.3666 31.5071 27.2583 31.2454 27.2583 30.9726V27.5439C27.2583 27.2711 27.3666 27.0094 27.5595 26.8165C27.7524 26.6236 28.0141 26.5153 28.2869 26.5153C28.5597 26.5153 28.8213 26.6236 29.0142 26.8165C29.2071 27.0094 29.3155 27.2711 29.3155 27.5439Z" fill="white"/>
<path d="M48.625 18.3125C48.625 14.5 49.5521 11.5 51.4062 9.3125C53.2604 7.125 55.6667 6.03125 58.625 6.03125C60.4583 6.03125 62.0104 6.54167 63.2812 7.5625C64.5729 8.5625 65.5417 9.76042 66.1875 11.1562L64.0625 11.9062C62.6667 9.40625 60.8333 8.15625 58.5625 8.15625C56.3125 8.15625 54.5208 9.08333 53.1875 10.9375C51.8542 12.7708 51.1875 15.2292 51.1875 18.3125C51.1875 21.4375 51.8646 23.9062 53.2188 25.7188C54.5729 27.5104 56.3542 28.4062 58.5625 28.4062C59.9583 28.4062 61.1771 28.0208 62.2188 27.25C63.2604 26.4583 64.0417 25.4896 64.5625 24.3438L66.8125 25.0625C66.1042 26.5833 65.0729 27.8854 63.7188 28.9688C62.3646 30.0312 60.6667 30.5625 58.625 30.5625C55.6875 30.5625 53.2812 29.4792 51.4062 27.3125C49.5521 25.125 48.625 22.125 48.625 18.3125ZM69.3125 18.3125C69.3125 14.6875 70.2188 11.7396 72.0312 9.46875C73.8646 7.17708 76.3542 6.03125 79.5 6.03125C80.5625 6.03125 81.5521 6.19792 82.4688 6.53125C83.3854 6.84375 84.1458 7.27083 84.75 7.8125C85.375 8.35417 85.8854 8.88542 86.2812 9.40625C86.6979 9.90625 87.0417 10.4375 87.3125 11L85.1875 11.75C83.7083 9.35417 81.8125 8.15625 79.5 8.15625C77.1042 8.15625 75.2292 9.09375 73.875 10.9688C72.5417 12.8229 71.875 15.2708 71.875 18.3125C71.875 21.4792 72.5625 23.9583 73.9375 25.75C75.3125 27.5208 77.125 28.4062 79.375 28.4062C81.4167 28.4062 82.9896 27.7396 84.0938 26.4062C85.1979 25.0729 85.75 23.5 85.75 21.6875V19.5H79.125V17.375H88.1875V30H86.375L86.1875 26.5625C84.9583 29.2292 82.6667 30.5625 79.3125 30.5625C76.3333 30.5625 73.9167 29.4688 72.0625 27.2812C70.2292 25.0938 69.3125 22.1042 69.3125 18.3125ZM96.125 21.25H104.938L102.188 13.375C102.021 12.8958 101.75 12.1354 101.375 11.0938C101.021 10.0312 100.771 9.29167 100.625 8.875H100.438C99.5625 11.4375 99.0521 12.9375 98.9062 13.375L96.125 21.25ZM90.25 30L99 6.59375H102.062L110.812 30H108.062L105.688 23.25H95.375L93 30H90.25ZM113.938 30V6.59375H122.75C125.021 6.59375 126.812 7.21875 128.125 8.46875C129.458 9.71875 130.125 11.375 130.125 13.4375C130.125 15.5625 129.448 17.2396 128.094 18.4688C126.74 19.6979 124.958 20.3125 122.75 20.3125H116.438V30H113.938ZM116.438 18.2188H122.375C124.021 18.2188 125.292 17.8229 126.188 17.0312C127.104 16.2188 127.562 15.0208 127.562 13.4375C127.562 11.8958 127.104 10.7292 126.188 9.9375C125.292 9.125 124 8.71875 122.312 8.71875H116.438V18.2188ZM134.625 30V6.59375H137.5L146.125 21.5312L148.938 26.4688H149.125C148.875 24.5312 148.75 22.3229 148.75 19.8438V6.59375H151.25V30H148.375L139.719 14.9688L136.938 10.1562H136.812C137.021 12.2396 137.125 14.4375 137.125 16.75V30H134.625Z" fill="#202B5D"/>
</svg>
